
<svg width="100%" height="100%" viewBox="0 0 2568 1388" version="1.1" xmlns="http://www.w3.org/2000/svg" xmlns:xlink="http://www.w3.org/1999/xlink" xml:space="preserve" xmlns:serif="http://www.serif.com/" style="fill-rule:evenodd;clip-rule:evenodd;stroke-linejoin:round;stroke-miterlimit:2;">
    <g id="Artboard1" transform="matrix(0.939044,0,0,0.906682,63.9002,63.6605)">
        <rect x="-68.048" y="-70.213" width="2734.69" height="1530.78" style="fill:none;"/>
        <g transform="matrix(1.06491,0,0,1.10292,-47.2465,-70.644)">
            <path d="M0,143.888C0,61.737 74.1,5.462 161.55,18.312L1302.55,167.362C1353.8,174.912 1394.67,230.163 1394.67,290.338L1394.67,446.087C1298.53,510.513 1235.5,618.338 1235.5,740.487C1235.5,863.788 1297,970.687 1394.67,1034.89L1394.67,1103.39C1394.67,1163.56 1353.83,1218.81 1302.53,1226.36L290.075,1364.66C202.6,1377.54 128.525,1321.24 128.525,1239.09L0,143.888ZM492,287.037L341.525,287.037L341.525,484.137L246.05,484.137L246.05,598.037L341.55,598.037L341.55,817.037C337.125,954.663 391.175,1016.29 515.375,1017.46L631.275,1017.46L631.275,903.563L571.775,903.563C504.375,900.288 489.775,880.563 492.025,791.863L492.025,598.038L677.025,598.038L848.35,1017.44L1010.08,1017.44L1245.92,484.138L1086.42,484.138L933.675,851.012L794.425,484.137L492,484.137L492,287.037Z" style="fill:rgb(121,193,66);fill-rule:nonzero;"/>
        </g>
        <g transform="matrix(1.06491,0,0,1.10292,-47.2465,-70.644)">
            <path d="M2215.25,473.412C2312.95,473.412 2378.08,497.512 2427.5,552.262C2467.93,596.063 2489.25,660.688 2489.25,732.938C2489.25,838.063 2446.6,920.188 2369.1,967.288C2318.55,997.963 2274.78,1006.71 2175.93,1006.71L1931.1,1006.71L1931.1,276.313L2081.6,276.313L2081.6,473.412L2215.25,473.412ZM2081.6,892.838L2192.78,892.838C2281.5,892.838 2335.4,833.688 2335.4,737.338C2335.4,636.588 2288.25,587.288 2192.78,587.288L2081.6,587.288L2081.6,892.838ZM1700.35,276.313L1850.85,276.313L1850.85,1006.71L1591.4,1006.71C1485.85,1006.71 1435.3,991.388 1381.4,944.313C1326.35,895.037 1298.28,824.938 1298.28,736.237C1298.28,644.237 1328.6,574.162 1392.62,522.687C1433.05,489.837 1488.1,473.437 1558.85,473.437L1700.35,473.437L1700.35,276.313ZM1700.35,587.312L1591.4,587.312C1503.8,587.312 1451.03,643.162 1451.03,736.237C1451.03,833.688 1504.92,892.838 1591.4,892.838L1700.35,892.838L1700.35,587.312Z" style="fill:white;fill-rule:nonzero;"/>
        </g>
    </g>
</svg>
